<?xml version="1.0" encoding="UTF-8" standalone="no"?>
<!-- Created with Inkscape (http://www.inkscape.org/) -->
<svg xmlns="http://www.w3.org/2000/svg" width="200" height="69" version="1.1">
  <g id="g1" transform="matrix(2,0,0,2,106,-2323.5)">
    <path id="path1" style="fill:#f5efbc;stroke:#000000;stroke-width:1.8;stroke-linecap:round;stroke-linejoin:round;" d="m -51.39745,1163.0948 85,0 0,29.5252 -85,0 2,-14.7626 z"/>
    <path id="path2" style="fill:#f5efbc;stroke:#000000;stroke-width:1.8;stroke-linecap:round;stroke-linejoin:round;" d="m 19.61576,1166.8577 0,24.625 c 0,2.002 5.8203,3.625 13,3.625 7.1797,0 13,-1.623 13,-3.625 l 0,-24.625 z"/>
    <path id="path3" style="fill:#f5efbc;stroke:#000000;stroke-width:1.8;stroke-linecap:round;stroke-linejoin:round;" transform="translate(-321.63424,901.70446)" d="m 367.25,264.98718 c 0,2.00203 -5.8203,3.625 -13,3.625 -7.1797,0 -13,-1.62297 -13,-3.625 0,-2.00203 5.8203,-3.625 13,-3.625 7.1797,0 13,1.62297 13,3.625 z"/>
    <path id="path4" style="fill:#2e439b;stroke:#000000;stroke-width:1.4;stroke-linecap:butt;stroke-linejoin:miter;stroke-miterlimit:4;" d="m 45.06778,1167.3815 c -2.44864,5.5993 -9.9067,7.192 -21.52831,5.7955 l 5.7779,9.7599 -6.02275,7.2171 c 7.75095,3.1192 17.18643,1.5723 22.07112,-0.1842 z"/>
    <path id="path5" style="fill:none;stroke:#000000;stroke-width:1.4;stroke-linecap:round;stroke-linejoin:round;" d="m 34.45935,1165.7653 c -3.4695,-0.1017 -8.01646,0.018 -10.47747,0.7778 1.2102,0.9782 6.11198,1.5627 9.94714,1.2348 3.20297,-0.2738 6.08198,-0.1311 7.93857,-1.1503 -0.70667,-1.1077 -3.93837,-3.3774 -7.91865,-3.2613"/>
    <g id="text1" transform="scale(0.90245956,1.1080829)" style="fill:#000000;stroke:none;">
      <path id="path6" d="m -31.244117,1065.327 c -0.454105,0.097 -0.733829,0.1948 -0.839171,0.2919 -0.105377,0.097 -0.158057,0.2918 -0.15804,0.5836 l 0,3.9629 c -0.729128,0.2755 -1.401601,0.5065 -2.017421,0.693 -0.615852,0.1865 -1.207451,0.3363 -1.774797,0.4496 -0.567375,0.1133 -1.126574,0.1943 -1.677599,0.243 -0.55105,0.049 -1.134734,0.073 -1.751054,0.073 -1.442403,0 -2.747159,-0.2107 -3.914273,-0.6322 -1.167128,-0.4214 -2.163966,-1.0171 -2.990519,-1.787 -0.826559,-0.7699 -1.466757,-1.6979 -1.920594,-2.7839 -0.453841,-1.086 -0.680761,-2.3015 -0.680759,-3.6464 -2e-6,-1.3133 0.230999,-2.4927 0.693001,-3.5381 0.461999,-1.0454 1.130639,-1.9328 2.005922,-2.6622 0.875275,-0.7293 1.932831,-1.2885 3.172672,-1.6776 1.239827,-0.389 2.637825,-0.5835 4.193997,-0.5836 0.599501,10e-5 1.162658,0.02 1.68947,0.061 0.526787,0.041 1.041467,0.1055 1.544044,0.1948 0.502547,0.089 1.005109,0.2067 1.507687,0.3524 0.502546,0.1457 1.03726,0.3239 1.604143,0.5346 l 0.146169,0.2678 c -0.04849,0.2271 -0.09301,0.4419 -0.133555,0.6444 -0.04058,0.2026 -0.08114,0.4335 -0.121684,0.6927 -0.04058,0.2592 -0.0851,0.5753 -0.133554,0.9482 -0.04849,0.373 -0.105378,0.8511 -0.170654,1.4342 l -0.94824,0 -0.120942,-2.0908 c -0.145937,-0.1459 -0.279739,-0.2675 -0.401407,-0.3647 -0.121699,-0.097 -0.23522,-0.1823 -0.340565,-0.2553 -0.105375,-0.073 -0.218773,-0.1418 -0.340194,-0.2066 -0.121451,-0.065 -0.263291,-0.1296 -0.425521,-0.1944 -0.5189,-0.2107 -1.078099,-0.3728 -1.677599,-0.4864 -0.599525,-0.1135 -1.199285,-0.1702 -1.799282,-0.1702 -1.99344,0 -3.541316,0.5957 -4.643631,1.787 -1.102329,1.1914 -1.65349,2.8731 -1.653485,5.045 -5e-6,1.1669 0.158035,2.2245 0.47412,3.1727 0.316075,0.9483 0.757795,1.7628 1.325162,2.4437 0.567354,0.6809 1.256274,1.2077 2.066763,1.5804 0.810471,0.3727 1.70195,0.5591 2.674438,0.5591 0.518379,0 1.008575,-0.044 1.470589,-0.1336 0.461988,-0.089 1.000906,-0.2471 1.616757,-0.4741 l 0,-3.2098 c -1.5e-5,-0.324 -0.101294,-0.5467 -0.303838,-0.6681 -0.202572,-0.1214 -0.563046,-0.1985 -1.081424,-0.2311 l -1.288805,-0.048 0,-0.9972 c 0.518873,0.016 0.960593,0.029 1.325162,0.037 0.364542,0.01 0.676541,0.016 0.935997,0.024 0.259429,0.01 0.486348,0.012 0.68076,0.012 0.194381,0 0.380864,0 0.559446,0 0.161735,0 0.343889,0 0.546463,0 0.202542,0 0.441704,-0 0.717487,-0.012 0.275749,-0.01 0.604072,-0.016 0.984968,-0.024 0.380861,-0.01 0.838657,-0.02 1.37339,-0.037 z"/>
      <path id="path7" d="m -23.706424,1062.0445 c 0.24336,0.033 0.474361,0.049 0.693002,0.049 0.218627,0 0.530749,0 0.936368,0 l 1.239835,0 c 0.518382,0 0.870818,-0.036 1.057311,-0.1095 0.186472,-0.073 0.295789,-0.2066 0.327951,-0.401 l 0.146169,-1.2888 0.972725,0 c -0.01634,0.4699 -0.02858,0.8508 -0.03673,1.1426 -0.0082,0.2919 -0.01633,0.527 -0.02449,0.7053 -0.0082,0.1783 -0.01225,0.3161 -0.01224,0.4132 -1.2e-5,0.097 -1.2e-5,0.1782 0,0.243 l 0.07345,2.6259 -0.972725,0 -0.146169,-1.2154 c -0.03216,-0.3245 -0.153598,-0.5556 -0.364308,-0.6933 -0.21073,-0.1378 -0.551047,-0.2067 -1.020954,-0.2067 l -1.239835,0 c -0.276021,0 -0.531506,0 -0.766457,0.012 -0.234964,0.01 -0.522602,0.029 -0.862913,0.061 l 0,4.546 c -6e-6,0.5352 0.0082,0.9527 0.02448,1.2525 0.01632,0.2997 0.06096,0.5267 0.133926,0.6807 0.07295,0.1541 0.190433,0.2514 0.352436,0.292 0.161991,0.041 0.380749,0.069 0.656275,0.085 l 1.142637,0.073 0,0.972 c -0.56737,-0.016 -1.057689,-0.028 -1.47096,-0.036 -0.413285,-0.01 -0.777964,-0.016 -1.094038,-0.024 -0.316085,-0.01 -0.587523,-0.012 -0.814314,-0.012 -0.226801,0 -0.445559,0 -0.656274,0 -0.210724,0 -0.429606,0 -0.656645,0 -0.227047,0 -0.48649,0 -0.778329,0.012 -0.291845,0.01 -0.628205,0.016 -1.009082,0.024 -0.380881,0.01 -0.822353,0.02 -1.32442,0.036 l 0,-0.972 0.89927,-0.073 c 0.291841,-0.016 0.514679,-0.048 0.668517,-0.097 0.153833,-0.049 0.267231,-0.1461 0.340194,-0.292 0.07296,-0.1459 0.1176,-0.3688 0.133926,-0.6685 0.01632,-0.2998 0.02448,-0.7173 0.02448,-1.2525 l 0,-9.9194 c -3e-6,-0.5347 -0.0082,-0.9561 -0.02448,-1.2643 -0.01633,-0.3082 -0.06493,-0.5392 -0.145798,-0.693 -0.08088,-0.1538 -0.198356,-0.2551 -0.352436,-0.3039 -0.154085,-0.049 -0.368886,-0.089 -0.644403,-0.1213 l -0.89927,-0.073 0,-0.8993 c 0.599512,0.016 1.122107,0.029 1.567787,0.037 0.445675,0.01 0.838672,0.016 1.178993,0.024 0.340314,0.01 0.636114,0.012 0.887399,0.012 0.251277,0 0.490439,0 0.717487,0 0.162239,0 0.30816,0 0.437763,0 0.129593,0 0.332151,-0 0.607675,-0.012 0.275513,-0.01 0.66851,-0.016 1.178994,-0.024 0.510469,-0.01 1.227708,-0.02 2.151719,-0.037 l 1.239835,0 c 0.470399,0 0.859563,0 1.167493,0.012 0.307906,0.01 0.688661,0.028 1.142266,0.06 l 0.146168,0.1707 -0.340565,3.4524 -0.874785,0 -0.195138,-1.8238 c -0.01584,-0.1459 -0.262917,-0.2593 -0.741231,-0.3402 -0.478335,-0.081 -1.130775,-0.1213 -1.957322,-0.1213 -0.227052,0 -0.437772,0 -0.63216,0 -0.194405,0 -0.396963,0 -0.607675,0.012 -0.210727,0.01 -0.441728,0.016 -0.693002,0.024 -0.251288,0.01 -0.547087,0.02 -0.887398,0.037 z"/>
      <path id="path8" d="m -13.916844,1070.2871 c 0.178071,-0.098 0.303588,-0.2516 0.376551,-0.4623 0.07296,-0.2107 0.109438,-0.5186 0.109441,-0.9237 l 0,-10.8922 c -3e-6,-0.5347 -0.008,-0.9561 -0.02411,-1.2643 -0.01608,-0.3082 -0.06468,-0.5392 -0.145798,-0.693 -0.08113,-0.1538 -0.198727,-0.2551 -0.352807,-0.3039 -0.154085,-0.049 -0.368886,-0.089 -0.644403,-0.1213 l -0.89927,-0.073 0,-0.8993 c 1.183196,0.033 2.070593,0.053 2.662195,0.061 0.591595,0.01 1.025154,0.012 1.300677,0.012 l 2.5041559,-0.024 c 0.7617498,-0.016 1.4141899,-0.029 1.9573221,-0.037 0.5431137,-0.01 0.9605962,-0.012 1.2524488,-0.012 1.636778,0 2.9860528,0.1621 4.0478282,0.4864 1.06174635,0.3242 1.94926764,0.8348 2.66256659,1.5318 0.61581891,0.5995 1.08177691,1.3572 1.39787521,2.273 0.3160612,0.9159 0.474101,1.9572 0.4741202,3.1241 -1.92e-5,2.6261 -0.8347368,4.7575 -2.50415556,6.3943 -0.92401815,0.9077 -2.02225924,1.6046 -3.29472674,2.0909 -1.272494,0.4862 -2.6217687,0.7293 -4.0478282,0.7293 -0.178577,0 -0.3974586,0 -0.6566453,0 -0.2592039,0 -0.5347225,-0.01 -0.8265568,-0.024 -0.4051241,-0.016 -0.8144449,-0.029 -1.2279636,-0.037 -0.4135318,-0.01 -0.7822918,-0.012 -1.1062808,-0.012 -0.356646,0 -0.814566,0.01 -1.373761,0.024 -0.559203,0.016 -1.365602,0.032 -2.419199,0.048 l 0,-0.5587 z m 3.913903,-0.4623 c 0.3081586,0.049 0.5757629,0.082 0.8028133,0.098 0.227036,0.016 0.5025547,0.024 0.8265568,0.024 1.3939087,0 2.5406253,-0.1337 3.4401532,-0.401 0.8995051,-0.2674 1.6571814,-0.709 2.2730312,-1.3248 1.1831832,-1.1674 1.77478162,-2.9909 1.77479708,-5.4706 -1.546e-5,-1.2158 -0.12961308,-2.2411 -0.38879338,-3.0758 -0.2592103,-0.8347 -0.6643266,-1.5195 -1.2153501,-2.0542 -0.2107337,-0.227 -0.4335724,-0.4176 -0.6685168,-0.5717 -0.2349707,-0.154 -0.4822945,-0.2877 -0.741972,-0.401 -0.5347264,-0.227 -1.2194422,-0.4135 -2.0541495,-0.5595 -0.834728,-0.1459 -1.6816882,-0.2188 -2.5408831,-0.2188 -0.2918499,0 -0.547088,0.01 -0.7657151,0.024 -0.2186413,0.016 -0.4659651,0.041 -0.7419716,0.073 z"/>
      <path id="path9" d="m 10.324121,1069.8003 c 0.647982,0.033 1.243537,0.053 1.786669,0.061 0.543114,0.01 1.187393,0.012 1.932837,0.012 0.259185,0 0.526542,-0.012 0.802071,-0.037 0.275508,-0.024 0.526789,-0.057 0.753844,-0.097 0.227031,-0.04 0.413514,-0.085 0.559447,-0.1336 0.145909,-0.049 0.227031,-0.097 0.243367,-0.1458 l 0.558705,-2.4804 0.94824,0 -0.26711,4.0363 -0.121683,0.1944 c -0.340332,0.016 -0.64825,0.033 -0.923756,0.049 -0.275531,0.016 -0.543012,0.028 -0.802442,0.036 -0.259455,0.01 -0.522855,0.012 -0.790201,0.012 -0.267368,0 -0.563291,0 -0.887769,0 -1.102085,0 -2.414879,-0.024 -3.938387,-0.073 -0.4214464,-0.016 -0.7293645,-0.024 -0.9237556,-0.024 -0.1944018,0 -0.4051217,0 -0.6321601,0 -0.1622492,0 -0.3284507,0 -0.4986052,0 -0.170163,0 -0.368764,0 -0.5958036,0.012 -0.2270468,0.01 -0.4945274,0.016 -0.8024427,0.024 -0.3079209,0.01 -0.6725998,0.02 -1.0940377,0.036 l 0,-0.5587 0.7783286,-0.4377 c 0.1780706,-0.098 0.3035874,-0.2475 0.3765508,-0.45 0.072958,-0.2026 0.1094379,-0.5146 0.1094409,-0.936 l 0,-10.8922 c -3e-6,-0.5347 -0.00804,-0.9521 -0.024114,-1.2521 -0.016079,-0.3 -0.060597,-0.5229 -0.133555,-0.6689 -0.072963,-0.1459 -0.1864849,-0.239 -0.3405651,-0.2793 -0.1540852,-0.04 -0.3770476,-0.077 -0.6688878,-0.1095 l -0.89927,-0.073 0,-0.9727 c 0.5025609,0.016 0.9442811,0.029 1.325162,0.037 0.3808763,0.01 0.7172366,0.016 1.0090819,0.024 0.2918387,0.01 0.5511577,0.012 0.7779576,0.012 0.2267919,0 0.4455497,0 0.6562743,0 0.2107151,0 0.4335538,0 0.6685168,0 0.2349521,0 0.4983519,-0 0.7902,-0.012 0.291836,-0.01 0.624115,-0.016 0.99684,-0.024 0.372709,-0.01 0.81851,-0.02 1.337404,-0.037 l 0,0.9727 -0.900012,0.073 c -0.291355,0.033 -0.51407,0.069 -0.668146,0.1095 -0.154089,0.04 -0.267611,0.1334 -0.340565,0.2793 -0.07297,0.146 -0.117485,0.3689 -0.133555,0.6689 -0.01608,0.3 -0.02412,0.7174 -0.02411,1.2521 z"/>
    </g>
  </g>
</svg>